<svg width="35" height="35" viewBox="0 0 35 35" fill="none" xmlns="http://www.w3.org/2000/svg">
<circle cx="17.5" cy="17.5" r="17.5" fill="#F9F0E5"/>
<path fill-rule="evenodd" clip-rule="evenodd" d="M18.5778 16.2681C18.8969 15.949 18.8969 15.4316 18.5778 15.1125C18.2587 14.7934 17.7414 14.7934 17.4223 15.1125C17.1032 15.4316 17.1032 15.949 17.4223 16.2681C17.7414 16.5872 18.2587 16.5872 18.5778 16.2681ZM16.2665 18.5789C16.5856 18.2598 16.5856 17.7425 16.2665 17.4234C15.9474 17.1043 15.4301 17.1043 15.111 17.4234C14.7919 17.7425 14.7919 18.2598 15.111 18.5789C15.4301 18.898 15.9474 18.898 16.2665 18.5789ZM18.5778 20.8898C18.8969 20.5707 18.8969 20.0534 18.5778 19.7343C18.2587 19.4152 17.7414 19.4152 17.4223 19.7343C17.1032 20.0534 17.1032 20.5707 17.4223 20.8898C17.7414 21.2089 18.2587 21.2089 18.5778 20.8898ZM20.8887 17.4234C21.2078 17.7425 21.2078 18.2598 20.8887 18.5789C20.5696 18.898 20.0522 18.898 19.7331 18.5789C19.414 18.2598 19.414 17.7425 19.7331 17.4234C20.0522 17.1043 20.5696 17.1043 20.8887 17.4234Z" fill="#FFA842"/>
<path d="M18.1997 24.564C17.2193 23.8061 16.0703 22.7451 14.6626 21.3374C13.2563 19.931 12.196 18.7829 11.4382 17.8032C10.271 16.2941 9.94522 15.339 10.0073 14.5904C10.0702 13.8321 10.5523 12.9952 11.7737 11.7737C12.9952 10.5523 13.8321 10.0702 14.5904 10.0073C15.339 9.94522 16.2941 10.271 17.8032 11.4382C18.7829 12.196 19.931 13.2563 21.3374 14.6626C22.7472 16.0724 23.8092 17.2227 24.5673 18.204C25.7311 19.7103 26.0552 20.6638 25.9925 21.4115C25.929 22.1692 25.4467 23.0058 24.2263 24.2263C23.0052 25.4473 22.1684 25.9295 21.4103 25.9926C20.6621 26.055 19.7077 25.7298 18.1997 24.564Z" stroke="#FFA842" stroke-width="2" stroke-linecap="round" stroke-linejoin="round"/>
</svg>
