<svg width="35" height="35" viewBox="0 0 35 35" fill="none" xmlns="http://www.w3.org/2000/svg">
<circle cx="17.5" cy="17.5" r="17.5" fill="#F9E5E5"/>
<path d="M10 22.0417C10 22.7985 10.0906 23.2784 10.2463 23.6046C10.3835 23.8921 10.6041 24.1303 11.0472 24.3367C11.524 24.5587 12.2393 24.7332 13.3218 24.8452C14.3949 24.9563 15.7602 25 17.5 25C19.2398 25 20.6051 24.9563 21.6782 24.8452C22.7607 24.7332 23.476 24.5587 23.9528 24.3367C24.3959 24.1303 24.6165 23.8921 24.7537 23.6046C24.9094 23.2784 25 22.7985 25 22.0417C25 21.2848 24.9094 20.8049 24.7537 20.4787C24.6165 20.1912 24.3959 19.953 23.9528 19.7466C23.476 19.5246 22.7607 19.3502 21.6782 19.2381C20.6051 19.1271 19.2398 19.0833 17.5 19.0833C15.7602 19.0833 14.3949 19.1271 13.3218 19.2381C12.2393 19.3502 11.524 19.5246 11.0472 19.7466C10.6041 19.953 10.3835 20.1912 10.2463 20.4787C10.0906 20.8049 10 21.2848 10 22.0417Z" stroke="#F56968" stroke-width="2" stroke-linecap="round" stroke-linejoin="round"/>
<path d="M13.8636 11.75C13.8636 13.844 15.5144 15.5 17.5 15.5C19.4856 15.5 21.1364 13.844 21.1364 11.75C21.1364 9.65597 19.4856 8 17.5 8C15.5144 8 13.8636 9.65597 13.8636 11.75Z" stroke="#F56968" stroke-width="2"/>
</svg>
