<svg width="35" height="35" viewBox="0 0 35 35" fill="none" xmlns="http://www.w3.org/2000/svg">
<circle cx="17.5" cy="17.5" r="17.5" fill="#F9E5E5"/>
<path d="M20.75 13.125C20.5625 11.125 19.25 9.75 17 9.75C14.75 9.75 13.4375 11.125 13.25 13.125" stroke="#EF7C64" stroke-width="2" stroke-linecap="round" stroke-linejoin="round"/>
<path d="M9 19.875C9 22.8116 9.42431 24.1277 10.3414 24.8537C10.8234 25.2353 11.5363 25.5327 12.6403 25.727C13.7449 25.9213 15.1648 26 17 26C18.8352 26 20.2551 25.9213 21.3597 25.727C22.4637 25.5327 23.1766 25.2353 23.6586 24.8537C24.5757 24.1277 25 22.8116 25 19.875C25 16.9384 24.5757 15.6223 23.6586 14.8963C23.1766 14.5147 22.4637 14.2173 21.3597 14.023C20.2551 13.8287 18.8352 13.75 17 13.75C15.1648 13.75 13.7449 13.8287 12.6403 14.023C11.5363 14.2173 10.8234 14.5147 10.3414 14.8963C9.42431 15.6223 9 16.9384 9 19.875Z" stroke="#EF7C64" stroke-width="2" stroke-linecap="round" stroke-linejoin="round"/>
<path fill-rule="evenodd" clip-rule="evenodd" d="M18 18C18 17.4477 17.5523 17 17 17C16.4477 17 16 17.4477 16 18V19.25H14.75C14.1977 19.25 13.75 19.6977 13.75 20.25C13.75 20.8023 14.1977 21.25 14.75 21.25H16V22.5C16 23.0523 16.4477 23.5 17 23.5C17.5523 23.5 18 23.0523 18 22.5V21.25H19.25C19.8023 21.25 20.25 20.8023 20.25 20.25C20.25 19.6977 19.8023 19.25 19.25 19.25H18V18Z" fill="#EF7C64"/>
</svg>
