<svg width="47" height="47" viewBox="0 0 47 47" fill="none" xmlns="http://www.w3.org/2000/svg">
<circle cx="23.5" cy="23.5" r="23.5" fill="#E5EFF9"/>
<path d="M23.5 13.0857C25.8319 13.0857 27.6443 13.1916 29.06 13.464C30.4707 13.7354 31.4131 14.1585 32.0708 14.7383C33.3768 15.8895 33.9143 17.9771 33.9143 22.2317C33.9143 24.9723 33.6677 26.9786 33.0108 28.2813C32.6964 28.9049 32.2997 29.3414 31.8024 29.6313C31.2994 29.9246 30.6218 30.1095 29.683 30.1095C28.4567 30.1095 27.532 30.385 26.8071 30.8761C26.1002 31.3551 25.6747 31.9818 25.3609 32.4755C25.3133 32.5504 25.2688 32.621 25.2268 32.6877C24.9637 33.1053 24.7977 33.3687 24.5672 33.5755C24.3665 33.7556 24.0845 33.9143 23.5002 33.9143C22.916 33.9142 22.634 33.7555 22.4333 33.5754C22.2028 33.3686 22.0368 33.1052 21.7738 32.6877C21.7317 32.621 21.6872 32.5504 21.6396 32.4755C21.3258 31.9817 20.9003 31.3551 20.1933 30.8761C19.4684 30.385 18.5437 30.1095 17.3175 30.1095C16.3839 30.1095 15.7085 29.92 15.2057 29.6207C14.7069 29.3238 14.3075 28.8771 13.9909 28.2438C13.3316 26.925 13.0857 24.9149 13.0857 22.2317C13.0857 18.0314 13.6216 15.938 14.9323 14.7729C15.5921 14.1865 16.536 13.7554 17.9448 13.4771C19.359 13.1977 21.1701 13.0857 23.5 13.0857Z" stroke="#58A5FF" stroke-width="2" stroke-linecap="round" stroke-linejoin="round"/>
<path d="M18.744 20.6464H22.5488" stroke="#58A5FF" stroke-width="2" stroke-linecap="round" stroke-linejoin="round"/>
<path d="M18.744 24.4512H28.2559" stroke="#58A5FF" stroke-width="2" stroke-linecap="round" stroke-linejoin="round"/>
</svg>
