<svg width="35" height="35" viewBox="0 0 35 35" fill="none" xmlns="http://www.w3.org/2000/svg">
<circle cx="17.5" cy="17.5" r="17.5" fill="#E7E5F9"/>
<path d="M17.5 7.79163V10.1666M13.1458 8.97913L13.9375 10.1666M21.8541 8.97913L21.0625 10.1666" stroke="#686EF5" stroke-width="2" stroke-linecap="round" stroke-linejoin="round"/>
<path fill-rule="evenodd" clip-rule="evenodd" d="M13.9583 18.6441C13.9583 20.6746 14.0216 21.9862 14.1578 22.8454C14.1598 22.858 14.1618 22.8705 14.1638 22.8828H12.1425C12.0093 21.8758 11.9583 20.5052 11.9583 18.6441C11.9583 13.7292 13.9375 11.75 17.5 11.75C21.0625 11.75 23.0416 13.7292 23.0416 18.6441C23.0416 20.5052 22.9906 21.8758 22.8575 22.8828H20.8362C20.8382 22.8705 20.8402 22.858 20.8422 22.8454C20.9784 21.9862 21.0416 20.6746 21.0416 18.6441C21.0416 16.3979 20.5798 15.2356 20.0811 14.6471C19.642 14.129 18.9107 13.75 17.5 13.75C16.0892 13.75 15.358 14.1291 14.9189 14.6471C14.4201 15.2356 13.9583 16.3979 13.9583 18.6441Z" fill="#686EF5"/>
<path d="M15.9167 22.8333C15.9167 22.8333 10.7709 22.8333 9.97919 22.8333C9.18752 22.8333 8.79169 23.4451 8.79169 24.0208C8.79169 24.5965 9.18752 25.2083 9.97919 25.2083C10.7709 25.2083 24.2292 25.2083 25.0209 25.2083C25.8125 25.2083 26.2084 24.5782 26.2084 24.0208C26.2084 23.4635 25.8125 22.8333 25.0209 22.8333C24.2292 22.8333 19.0834 22.8333 19.0834 22.8333M15.9167 22.8333C15.9167 22.8333 15.9167 21.25 15.9167 20.4583C15.9167 19.6667 16.6256 18.875 17.5 18.875C18.3745 18.875 19.0834 19.6667 19.0834 20.4583C19.0834 21.25 19.0834 22.8333 19.0834 22.8333M15.9167 22.8333H19.0834" stroke="#686EF5" stroke-width="2" stroke-linecap="round" stroke-linejoin="round"/>
</svg>
