<svg width="35" height="35" viewBox="0 0 35 35" fill="none" xmlns="http://www.w3.org/2000/svg">
<circle cx="17.5" cy="17.5" r="17.5" fill="#EBF9F2"/>
<path d="M9 17C9 19.0359 9.11039 20.6037 9.38064 21.8197C9.64835 23.0243 10.0595 23.8215 10.619 24.381C11.1785 24.9405 11.9757 25.3516 13.1803 25.6194C14.3963 25.8896 15.9641 26 18 26C20.0359 26 21.6037 25.8896 22.8197 25.6194C24.0243 25.3516 24.8215 24.9405 25.381 24.381C25.9405 23.8215 26.3516 23.0243 26.6194 21.8197C26.8896 20.6037 27 19.0359 27 17C27 14.9641 26.8896 13.3963 26.6194 12.1803C26.3516 10.9757 25.9405 10.1785 25.381 9.61898C24.8215 9.05947 24.0243 8.64835 22.8197 8.38064C21.6037 8.1104 20.0359 8 18 8C15.9641 8 14.3963 8.1104 13.1803 8.38064C11.9757 8.64835 11.1785 9.05947 10.619 9.61898C10.0595 10.1785 9.64835 10.9757 9.38064 12.1803C9.11039 13.3963 9 14.9641 9 17Z" stroke="#58B081" stroke-width="2" stroke-linecap="round" stroke-linejoin="round"/>
<path fill-rule="evenodd" clip-rule="evenodd" d="M19 21.1667C19 21.719 18.5523 22.1667 18 22.1667C17.4477 22.1667 17 21.719 17 21.1667V16.1667C17 15.6144 17.4477 15.1667 18 15.1667C18.5523 15.1667 19 15.6144 19 16.1667V21.1667ZM18 14.5C17.5398 14.5 17.1667 14.1269 17.1667 13.6667C17.1667 13.2064 17.5398 12.8333 18 12.8333C18.4602 12.8333 18.8333 13.2064 18.8333 13.6667C18.8333 14.1269 18.4602 14.5 18 14.5Z" fill="#58B081"/>
</svg>
