<svg width="28" height="28" viewBox="0 0 28 28" fill="none" xmlns="http://www.w3.org/2000/svg">
<ellipse cx="13.8857" cy="13.8905" rx="13.8857" ry="13.8905" fill="#EBF9F2"/>
<path d="M10.375 10.375H12.25" stroke="#51C98A" stroke-width="2" stroke-linecap="round" stroke-linejoin="round"/>
<path d="M10.375 13.5H16.625" stroke="#51C98A" stroke-width="2" stroke-linecap="round" stroke-linejoin="round"/>
<path d="M7 13.5C7 15.0212 7.08282 16.1754 7.27952 17.0605C7.47371 17.9343 7.76533 18.4833 8.14101 18.859C8.5167 19.2347 9.06572 19.5263 9.93947 19.7205C10.8246 19.9172 11.9788 20 13.5 20C14.1678 20 14.7686 19.9841 15.3099 19.9488C17.2596 19.8216 18.2692 19.4488 18.859 18.859C19.4488 18.2692 19.8216 17.2596 19.9488 15.3099C19.9841 14.7686 20 14.1678 20 13.5C20 11.9788 19.9172 10.8246 19.7205 9.93947C19.5263 9.06572 19.2347 8.5167 18.859 8.14101C18.4833 7.76533 17.9343 7.47371 17.0605 7.27952C16.1754 7.08282 15.0212 7 13.5 7C11.9788 7 10.8246 7.08282 9.93947 7.27952C9.06572 7.47371 8.5167 7.76533 8.14101 8.14101C7.76533 8.5167 7.47371 9.06572 7.27952 9.93947C7.08282 10.8246 7 11.9788 7 13.5Z" stroke="#51C98A" stroke-width="2" stroke-linecap="round" stroke-linejoin="round"/>
</svg>
