<svg width="28" height="28" viewBox="0 0 28 28" fill="none" xmlns="http://www.w3.org/2000/svg">
<ellipse cx="13.8857" cy="13.8905" rx="13.8857" ry="13.8905" fill="#F9F0E5"/>
<path fill-rule="evenodd" clip-rule="evenodd" d="M14.9815 12.0567C15.2474 11.7908 15.2474 11.3596 14.9815 11.0937C14.7156 10.8278 14.2844 10.8278 14.0185 11.0937C13.7526 11.3596 13.7526 11.7908 14.0185 12.0567C14.2844 12.3226 14.7156 12.3226 14.9815 12.0567ZM13.0554 13.9824C13.3213 13.7165 13.3213 13.2854 13.0554 13.0195C12.7895 12.7535 12.3584 12.7535 12.0924 13.0195C11.8265 13.2854 11.8265 13.7165 12.0924 13.9824C12.3584 14.2484 12.7895 14.2484 13.0554 13.9824ZM14.9815 15.9082C15.2474 15.6423 15.2474 15.2111 14.9815 14.9452C14.7156 14.6793 14.2844 14.6793 14.0185 14.9452C13.7526 15.2111 13.7526 15.6423 14.0185 15.9082C14.2844 16.1741 14.7156 16.1741 14.9815 15.9082ZM16.9072 13.0195C17.1731 13.2854 17.1731 13.7165 16.9072 13.9824C16.6413 14.2484 16.2102 14.2484 15.9443 13.9824C15.6783 13.7165 15.6783 13.2854 15.9443 13.0195C16.2102 12.7535 16.6413 12.7535 16.9072 13.0195Z" fill="#FFA842"/>
<path d="M14.7684 18.8382C13.9599 18.2131 13.0083 17.3349 11.8367 16.1633C10.6663 14.9929 9.78862 14.042 9.16366 13.234C8.19797 11.9854 7.95909 11.2322 8.00552 10.6725C8.05276 10.103 8.41658 9.44197 9.42927 8.42927C10.442 7.41658 11.103 7.05276 11.6725 7.00552C12.2322 6.95909 12.9854 7.19797 14.234 8.16366C15.042 8.78862 15.9929 9.66628 17.1633 10.8367C18.3366 12.01 19.2157 12.9627 19.8409 13.7719C20.8037 15.018 21.0412 15.77 20.9944 16.329C20.9466 16.898 20.5826 17.5589 19.5707 18.5707C18.5584 19.5831 17.8974 19.947 17.3281 19.9944C16.7687 20.041 16.016 19.8027 14.7684 18.8382Z" stroke="#FFA842" stroke-width="2" stroke-linecap="round" stroke-linejoin="round"/>
</svg>
