<svg width="28" height="28" viewBox="0 0 28 28" fill="none" xmlns="http://www.w3.org/2000/svg">
<ellipse cx="13.8857" cy="13.8905" rx="13.8857" ry="13.8905" fill="#E7E5F9"/>
<path fill-rule="evenodd" clip-rule="evenodd" d="M7.46668 6.86804C7.9361 6.46815 8.66281 5.97487 9.44706 6.001L9.47005 6.00176L9.49293 6.00422C9.92778 6.05088 10.3225 6.2679 10.6608 6.59456L10.6629 6.59659C10.8945 6.82234 11.3032 7.29996 11.6586 7.76303C11.8386 7.99767 12.0146 8.24102 12.154 8.45889C12.2235 8.56759 12.2886 8.67718 12.3414 8.781C12.3891 8.87462 12.4464 9.00051 12.4745 9.13456C12.6223 9.82128 12.3124 10.3622 12.138 10.6665C12.1312 10.6784 12.1246 10.69 12.1182 10.7011L12.1039 10.7264C12.0532 10.814 11.9885 10.9117 11.9323 10.9966L11.9261 11.006C11.808 11.1846 11.7053 11.342 11.6397 11.4824C11.6207 11.5229 11.609 11.5536 11.6019 11.5754C11.8399 12.139 12.1736 12.6975 12.5778 13.22C13.0648 13.8005 13.8142 14.5206 14.1953 14.789C14.581 15.0607 14.9793 15.2882 15.3841 15.4631C15.4093 15.4557 15.4461 15.4423 15.4957 15.4194C15.6432 15.3512 15.8066 15.2457 15.9863 15.1282L15.9946 15.1227C16.0738 15.0709 16.1634 15.0122 16.2434 14.9656L16.2478 14.9631L16.2736 14.9486C16.2843 14.9426 16.2954 14.9363 16.3067 14.9299C16.6162 14.7554 17.1567 14.4505 17.8501 14.5958L17.8516 14.5962L17.8486 14.5955L17.8501 14.5958C17.982 14.6232 18.1069 14.6788 18.2005 14.7255C18.3035 14.7769 18.4126 14.8401 18.5214 14.9079C18.7392 15.0436 18.9834 15.2152 19.2193 15.3912C19.6826 15.7368 20.1643 16.1369 20.3946 16.3691L20.3927 16.3672L20.3967 16.3712L20.3946 16.3691C20.7223 16.695 20.9609 17.0961 20.9971 17.564L20.998 17.5751L20.9985 17.5862C21.0306 18.356 20.5501 19.0629 20.1547 19.5226C19.7539 19.9886 19.2963 20.3639 19.0571 20.515C18.9965 20.5533 19.0994 20.4848 19.0571 20.515C18.106 21.1953 16.9168 21.1118 15.6972 20.563C15.6683 20.55 15.7219 20.573 15.6972 20.563C14.3934 20.0318 12.8911 18.9502 11.4818 17.6877C10.9786 17.2369 10.0093 16.2868 9.70402 15.9374C9.70608 15.9397 9.70814 15.9419 9.7102 15.9441L9.69734 15.9297C9.69953 15.9323 9.70176 15.9348 9.70402 15.9374C8.28235 14.3964 7.04636 12.7038 6.44704 11.2848C6.43373 11.2533 6.45938 11.3111 6.44704 11.2848C6.15776 10.6682 6 10.063 6 9.49119C6 8.92145 6.16111 8.39614 6.48056 7.94263C6.47363 7.95384 6.46716 7.96469 6.46118 7.97515L6.49644 7.92032C6.49111 7.92774 6.48581 7.93518 6.48056 7.94263C6.55548 7.82149 6.68407 7.65865 6.82769 7.49628C6.99474 7.3074 7.21385 7.08342 7.46668 6.86804ZM15.3504 15.4709L15.3521 15.4707L15.3504 15.4709ZM11.5926 11.6116L11.5928 11.6101L11.5926 11.6116ZM7.54711 8.59457C7.54596 8.5963 7.5463 8.59564 7.5463 8.59564L7.5301 8.62397L7.51104 8.65046C7.34081 8.88701 7.25 9.1624 7.25 9.49119C7.25 9.83764 7.34741 10.2638 7.58327 10.7636L7.58901 10.7758L7.59422 10.7882C8.1108 12.0175 9.24153 13.5936 10.6287 15.0962L10.6352 15.1033L10.6415 15.1106C10.8892 15.3961 11.8251 16.317 12.3158 16.7566C13.6893 17.9871 15.0694 18.9598 16.1782 19.4091L16.1897 19.4138L16.201 19.4189C17.227 19.883 17.8975 19.8137 18.3407 19.4905L18.3626 19.4745L18.3858 19.4605C18.4833 19.4016 18.8611 19.1097 19.207 18.7075C19.5671 18.2889 19.7545 17.9088 19.7499 17.6503C19.7405 17.5652 19.6906 17.4315 19.5121 17.2543L19.5081 17.2504C19.3446 17.0851 18.9203 16.7276 18.472 16.3932C18.2515 16.2288 18.0378 16.0794 17.8602 15.9687C17.7712 15.9132 17.6982 15.8718 17.6425 15.8441C17.6081 15.8269 17.5893 15.8195 17.5836 15.8172C17.3853 15.779 17.2226 15.8493 16.8856 16.0385L16.8688 16.048C16.8207 16.0762 16.7587 16.1165 16.6708 16.1741L16.6566 16.1834C16.4937 16.29 16.259 16.4436 16.0202 16.554C15.8097 16.6513 15.4114 16.8067 15.0086 16.6606L14.9953 16.6558L14.9822 16.6504C14.456 16.4321 13.9514 16.1462 13.4755 15.8109C12.9723 15.4565 12.1384 14.643 11.6116 14.0132L11.6042 14.0043L11.5972 13.9952C11.1099 13.3671 10.7007 12.6796 10.4115 11.9678L10.4081 11.9595L10.405 11.9512C10.2555 11.5508 10.4122 11.1564 10.5073 10.953C10.6158 10.7209 10.7674 10.4918 10.8739 10.331C10.8772 10.326 10.8804 10.3211 10.8836 10.3163C10.9474 10.2198 10.9913 10.1531 11.0211 10.1018L11.0323 10.0821C11.2254 9.7433 11.2908 9.58823 11.254 9.40517C11.2517 9.39946 11.2444 9.38128 11.2276 9.34835C11.1996 9.29335 11.1576 9.22096 11.1009 9.13239C10.9879 8.95572 10.8352 8.74334 10.6669 8.52404C10.3263 8.08014 9.96048 7.65781 9.7914 7.4927C9.61532 7.32296 9.47537 7.26555 9.38115 7.25002C9.10157 7.2528 8.70294 7.45697 8.27729 7.81957C8.07634 7.99076 7.89885 8.17196 7.76399 8.32443C7.69679 8.4004 7.6423 8.46685 7.60241 8.51863C7.56777 8.56361 7.55131 8.58828 7.54711 8.59457Z" fill="#686EF5"/>
</svg>
