<svg width="28" height="28" viewBox="0 0 28 28" fill="none" xmlns="http://www.w3.org/2000/svg">
<ellipse cx="13.8857" cy="13.8905" rx="13.8857" ry="13.8905" fill="#E5EFF9"/>
<path d="M8 17.875C8 18.4568 8.07341 18.7926 8.17832 19.0033C8.26478 19.177 8.40762 19.3384 8.74596 19.4894C9.11622 19.6547 9.6868 19.7906 10.5731 19.8785C11.4497 19.9655 12.5686 20 14 20C15.4314 20 16.5503 19.9655 17.4269 19.8785C18.3132 19.7906 18.8838 19.6547 19.254 19.4894C19.5924 19.3384 19.7352 19.177 19.8217 19.0033C19.9266 18.7926 20 18.4568 20 17.875C20 17.2932 19.9266 16.9574 19.8217 16.7467C19.7352 16.573 19.5924 16.4116 19.254 16.2606C18.8838 16.0953 18.3132 15.9594 17.4269 15.8715C16.5503 15.7845 15.4314 15.75 14 15.75C12.5686 15.75 11.4497 15.7845 10.5731 15.8715C9.6868 15.9594 9.11622 16.0953 8.74596 16.2606C8.40762 16.4116 8.26478 16.573 8.17832 16.7467C8.07341 16.9574 8 17.2932 8 17.875Z" stroke="#58A5FF" stroke-width="2" stroke-linecap="round" stroke-linejoin="round"/>
<path d="M11.1818 9.75C11.1818 11.2519 12.4265 12.5 14 12.5C15.5735 12.5 16.8182 11.2519 16.8182 9.75C16.8182 8.24813 15.5735 7 14 7C12.4265 7 11.1818 8.24813 11.1818 9.75Z" stroke="#58A5FF" stroke-width="2"/>
</svg>
