<svg width="28" height="28" viewBox="0 0 28 28" fill="none" xmlns="http://www.w3.org/2000/svg">
<ellipse cx="13.8857" cy="13.8905" rx="13.8857" ry="13.8905" fill="#F9E5E5"/>
<path fill-rule="evenodd" clip-rule="evenodd" d="M11.7878 9.84605C12.5667 9.77787 13.4653 9.75 14.5 9.75C15.5347 9.75 16.4333 9.77787 17.2122 9.84605C17.1084 9.15144 16.801 8.6541 16.4138 8.30991C15.9162 7.8676 15.2244 7.625 14.5 7.625C13.7756 7.625 13.0838 7.8676 12.5862 8.30991C12.199 8.6541 11.8916 9.15144 11.7878 9.84605ZM19.2473 10.1958C19.2035 8.75814 18.6329 7.60654 17.7425 6.81509C16.8338 6.0074 15.6506 5.625 14.5 5.625C13.3494 5.625 12.1662 6.0074 11.2575 6.81509C10.3671 7.60654 9.79648 8.75814 9.75271 10.1958C7.5781 10.8421 7 12.3138 7 15.375C7 20.0072 8.32375 21 14.5 21C20.6763 21 22 20.0072 22 15.375C22 12.3138 21.4219 10.8421 19.2473 10.1958ZM9 15.375C9 17.674 9.37782 18.1325 9.63391 18.3246C9.82789 18.4701 10.2206 18.6612 11.0513 18.7997C11.8794 18.9377 12.9893 19 14.5 19C16.0107 19 17.1206 18.9377 17.9487 18.7997C18.7794 18.6612 19.1721 18.4701 19.3661 18.3246C19.6222 18.1325 20 17.674 20 15.375C20 13.076 19.6222 12.6175 19.3661 12.4254C19.1721 12.2799 18.7794 12.0888 17.9487 11.9503C17.1206 11.8123 16.0107 11.75 14.5 11.75C12.9893 11.75 11.8794 11.8123 11.0513 11.9503C10.2206 12.0888 9.82789 12.2799 9.63391 12.4254C9.37782 12.6175 9 13.076 9 15.375Z" fill="#FF5858"/>
<circle cx="1.875" cy="1.875" r="1" transform="matrix(-1 0 0 1 16.375 13.5)" stroke="#FF5858" stroke-width="1.75"/>
</svg>
