<svg width="35" height="35" viewBox="0 0 35 35" fill="none" xmlns="http://www.w3.org/2000/svg">
<circle cx="17.5" cy="17.5" r="17.5" fill="#F9E5E5"/>
<path d="M27 18C27 22.9706 22.9706 27 18 27C13.0294 27 9 22.9706 9 18C9 13.0294 13.0294 9 18 9C22.9706 9 27 13.0294 27 18Z" stroke="#F56968" stroke-width="2"/>
<path d="M21 16C21 17.6569 19.6569 19 18 19C16.3431 19 15 17.6569 15 16C15 14.3431 16.3431 13 18 13C19.6569 13 21 14.3431 21 16Z" stroke="#F56968" stroke-width="2"/>
<path d="M12.164 24.5C12.9006 22.5912 14.5636 22 18 22C21.466 22 23.1279 22.5578 23.8549 24.5" stroke="#F56968" stroke-width="2" stroke-linecap="round"/>
</svg>
