<svg width="35" height="35" viewBox="0 0 35 35" fill="none" xmlns="http://www.w3.org/2000/svg">
<circle cx="17.5" cy="17.5" r="17.5" fill="#F9F0E5"/>
<path fill-rule="evenodd" clip-rule="evenodd" d="M18 11.8333C18.8269 11.8333 19.5206 12.1534 19.9974 12.6898C20.4579 13.2078 20.6667 13.8703 20.6667 14.5C20.6667 15.6069 20.0197 16.3698 19.6236 16.8368L19.5964 16.8689C19.1158 17.4363 19 17.6223 19 17.8333C19 18.3856 18.5523 18.8333 18 18.8333C17.4477 18.8333 17 18.3856 17 17.8333C17 16.8242 17.6266 16.0938 17.9965 15.6626C18.0225 15.6324 18.0471 15.6036 18.0702 15.5763C18.5107 15.0562 18.6667 14.8074 18.6667 14.5C18.6667 14.2964 18.5977 14.1255 18.5026 14.0185C18.4239 13.93 18.2842 13.8333 18 13.8333C17.7158 13.8333 17.5761 13.93 17.4974 14.0185C17.4023 14.1255 17.3333 14.2964 17.3333 14.5C17.3333 15.0523 16.8856 15.5 16.3333 15.5C15.781 15.5 15.3333 15.0523 15.3333 14.5C15.3333 13.8703 15.5421 13.2078 16.0026 12.6898C16.4794 12.1534 17.1731 11.8333 18 11.8333ZM18 19.5C18.4602 19.5 18.8333 19.8731 18.8333 20.3333C18.8333 20.7936 18.4602 21.1667 18 21.1667C17.5398 21.1667 17.1667 20.7936 17.1667 20.3333C17.1667 19.8731 17.5398 19.5 18 19.5Z" fill="#FFA842"/>
<path d="M9 17C9 19.0359 9.11039 20.6037 9.38064 21.8197C9.64835 23.0243 10.0595 23.8215 10.619 24.381C11.1785 24.9405 11.9757 25.3516 13.1803 25.6194C14.3963 25.8896 15.9641 26 18 26C20.0359 26 21.6037 25.8896 22.8197 25.6194C24.0243 25.3516 24.8215 24.9405 25.381 24.381C25.9405 23.8215 26.3516 23.0243 26.6194 21.8197C26.8896 20.6037 27 19.0359 27 17C27 14.9641 26.8896 13.3963 26.6194 12.1803C26.3516 10.9757 25.9405 10.1785 25.381 9.61898C24.8215 9.05947 24.0243 8.64835 22.8197 8.38064C21.6037 8.1104 20.0359 8 18 8C15.9641 8 14.3963 8.1104 13.1803 8.38064C11.9757 8.64835 11.1785 9.05947 10.619 9.61898C10.0595 10.1785 9.64835 10.9757 9.38064 12.1803C9.11039 13.3963 9 14.9641 9 17Z" stroke="#FFA842" stroke-width="2" stroke-linecap="round" stroke-linejoin="round"/>
</svg>
