<svg width="24" height="25" viewBox="0 0 24 25" fill="none" xmlns="http://www.w3.org/2000/svg">
<path d="M13.7633 2.30465C15.4695 3.56366 17.8111 5.32939 19.7304 6.91465C20.6926 7.70936 21.53 8.44347 22.1245 9.0373C22.4236 9.33604 22.6406 9.57895 22.778 9.76207C22.8258 9.82578 22.8572 9.8733 22.8767 9.90573C22.9852 11.5356 23.2496 15.5198 22.3719 19.9779C22.1475 21.1182 21.7303 21.8282 21.1279 22.3122C20.5005 22.8163 19.5539 23.1709 18.0887 23.3539C17.3588 23.445 16.6359 23.52 15.9182 23.5789C13.272 23.7961 10.6918 23.7946 8.08393 23.575C7.39282 23.5167 6.69945 23.4432 6.00208 23.3542C4.54036 23.1678 3.60663 22.81 2.98443 22.3052C2.38303 21.8172 1.96249 21.1017 1.71205 19.9573C0.731983 15.4786 0.979718 11.4913 1.19878 9.95978C1.22156 9.92158 1.26188 9.86172 1.3271 9.77837C1.47501 9.58937 1.70084 9.34289 2.00458 9.04354C2.60899 8.44785 3.44945 7.71333 4.4089 6.91974C6.32335 5.33623 8.64444 3.57253 10.3366 2.31263C11.3568 1.55307 12.7404 1.54987 13.7633 2.30465ZM22.9016 9.95206C22.9014 9.95201 22.9003 9.94973 22.8986 9.94533C22.9008 9.94991 22.9017 9.95211 22.9016 9.95206ZM1.18016 9.99416C1.18007 9.99419 1.18083 9.99238 1.18269 9.98866C1.18118 9.99227 1.18024 9.99414 1.18016 9.99416Z" stroke="#605E58" stroke-width="2" stroke-linecap="round" stroke-linejoin="round"/>
<path d="M8 19H16" stroke="#605E58" stroke-width="2" stroke-linecap="round"/>
</svg>
