<svg width="20" height="23" viewBox="0 0 20 23" fill="none" xmlns="http://www.w3.org/2000/svg">
<path d="M1 17.696C1 18.5967 1.10715 19.1922 1.30695 19.6108C1.48826 19.9908 1.78057 20.2983 2.33403 20.556C2.92109 20.8294 3.78523 21.0373 5.0663 21.1699C6.33789 21.3015 7.95139 21.3529 10 21.3529C12.0486 21.3529 13.6621 21.3015 14.9337 21.1699C16.2148 21.0373 17.0789 20.8294 17.666 20.556C18.2194 20.2983 18.5117 19.9908 18.6931 19.6108C18.8928 19.1922 19 18.5967 19 17.696C19 16.7954 18.8928 16.1999 18.6931 15.7812C18.5117 15.4013 18.2194 15.0938 17.666 14.836C17.0789 14.5627 16.2148 14.3548 14.9337 14.2222C13.6621 14.0906 12.0486 14.0392 10 14.0392C7.95139 14.0392 6.33789 14.0906 5.0663 14.2222C3.78523 14.3548 2.92109 14.5627 2.33403 14.836C1.78057 15.0938 1.48826 15.4013 1.30695 15.7812C1.10715 16.1999 1 16.7954 1 17.696Z" stroke="#575A63" stroke-width="2" stroke-linecap="round" stroke-linejoin="round"/>
<path d="M5.54547 5.58824C5.54547 8.14521 7.56253 10.1765 10 10.1765C12.4375 10.1765 14.4546 8.14521 14.4546 5.58824C14.4546 3.03126 12.4375 1 10 1C7.56253 1 5.54547 3.03126 5.54547 5.58824Z" stroke="#575A63" stroke-width="2"/>
</svg>
